<svg width="1200" height="720" viewBox="0 0 1200 720" fill="none" xmlns="http://www.w3.org/2000/svg">
  <rect width="1200" height="720" rx="40" fill="#F8FAFC"/>
  <rect y="440" width="1200" height="280" fill="#E2E8F0"/>
  <rect x="90" y="150" width="420" height="240" rx="24" fill="#0F172A"/>
  <rect x="120" y="180" width="180" height="180" rx="18" fill="#F59E0B"/>
  <rect x="330" y="210" width="120" height="150" rx="14" fill="#F8FAFC"/>
  <path d="M650 220L880 120V360H650V220Z" fill="#F59E0B"/>
  <rect x="700" y="260" width="140" height="140" rx="16" fill="#0F172A"/>
  <rect x="860" y="240" width="120" height="160" rx="18" fill="#F8FAFC"/>
  <path d="M600 420C600 370 640 330 690 330H830C880 330 920 370 920 420V520H600V420Z" fill="#94A3B8"/>
  <circle cx="930" cy="150" r="70" fill="#FDE68A"/>
  <path d="M170 620C240 560 320 520 420 520H760C840 520 910 560 980 620" stroke="#0F172A" stroke-width="16" stroke-linecap="round"/>
</svg>
